<?xml version="1.0" encoding="UTF-8" standalone="no"?>
<!-- Uploaded to: SVG Repo, www.svgrepo.com, Generator: SVG Repo Mixer Tools -->

<svg
   fill="#000000"
   width="800px"
   height="800px"
   viewBox="0 0 36 36"
   version="1.1"
   preserveAspectRatio="xMidYMid meet"
   id="svg88"
   sodipodi:docname="get.svg"
   inkscape:version="1.2.2 (732a01da63, 2022-12-09)"
   xml:space="preserve"
   xmlns:inkscape="http://www.inkscape.org/namespaces/inkscape"
   xmlns:sodipodi="http://sodipodi.sourceforge.net/DTD/sodipodi-0.dtd"
   xmlns="http://www.w3.org/2000/svg"
   xmlns:svg="http://www.w3.org/2000/svg"><defs
     id="defs92" /><sodipodi:namedview
     id="namedview90"
     pagecolor="#ffffff"
     bordercolor="#000000"
     borderopacity="0.25"
     inkscape:showpageshadow="2"
     inkscape:pageopacity="0.0"
     inkscape:pagecheckerboard="0"
     inkscape:deskcolor="#d1d1d1"
     showgrid="false"
     inkscape:zoom="0.36990524"
     inkscape:cx="436.59831"
     inkscape:cy="500.12809"
     inkscape:window-width="1920"
     inkscape:window-height="1017"
     inkscape:window-x="1912"
     inkscape:window-y="-8"
     inkscape:window-maximized="1"
     inkscape:current-layer="svg88"
     inkscape:lockguides="false" /><title
     id="title76">application-line</title><rect
     x="5"
     y="7"
     width="2"
     height="2"
     class="clr-i-outline clr-i-outline-path-1"
     id="rect78" /><rect
     x="9"
     y="7"
     width="2"
     height="2"
     class="clr-i-outline clr-i-outline-path-2"
     id="rect80" /><rect
     x="13"
     y="7"
     width="2"
     height="2"
     class="clr-i-outline clr-i-outline-path-3"
     id="rect82" /><path
     d="M32,4H4A2,2,0,0,0,2,6V30a2,2,0,0,0,2,2H32a2,2,0,0,0,2-2V6A2,2,0,0,0,32,4ZM4,6H32v4.2H4ZM4,30V11.8H32V30Z"
     class="clr-i-outline clr-i-outline-path-4"
     id="path84" /><rect
     x="0"
     y="0"
     width="36"
     height="36"
     fill-opacity="0"
     id="rect86" /><path
     style="fill:#000000;stroke:#000000;stroke-width:0.675;stroke-dasharray:none;stroke-opacity:1"
     d="m 15.614327,27.510049 c -0.573517,-0.0085 -0.607986,-0.01092 -0.645588,-0.04497 -0.09408,-0.0852 -0.09005,0.0032 -0.09005,-1.976363 v -1.843057 l -0.04641,-0.09312 c -0.05192,-0.104204 -0.140475,-0.180242 -0.475792,-0.408565 -0.794054,-0.540682 -1.258245,-1.096617 -1.514531,-1.813867 -0.137546,-0.38494 -0.147945,-0.490786 -0.155452,-1.582308 -0.0064,-0.926816 -0.0051,-0.972045 0.03162,-1.152436 0.126517,-0.620937 0.581254,-1.03756 1.237162,-1.133467 l 0.147157,-0.02152 0.0055,-0.839889 0.0055,-0.839889 0.05084,-0.144055 c 0.07431,-0.210541 0.146029,-0.325349 0.299056,-0.478731 0.214909,-0.215408 0.437216,-0.304795 0.756801,-0.3043 0.305227,4.81e-4 0.549168,0.08797 0.741382,0.26593 l 0.103404,0.09573 0.06207,-0.09543 c 0.13377,-0.205688 0.362449,-0.378343 0.597438,-0.451076 0.178369,-0.05521 0.488384,-0.05513 0.666252,1.79e-4 0.216601,0.06735 0.417131,0.206989 0.562171,0.391479 l 0.05663,0.07203 0.09339,-0.104317 c 0.196962,-0.220015 0.443416,-0.337155 0.737365,-0.350471 0.213264,-0.0097 0.368784,0.02394 0.569568,0.123071 0.170723,0.08429 0.328549,0.220338 0.428993,0.369806 0.03917,0.05828 0.07389,0.109626 0.07716,0.114101 0.0033,0.0045 0.0252,-0.01262 0.04872,-0.03798 0.419412,-0.452317 1.108271,-0.423419 1.554867,0.06523 0.111916,0.122454 0.173851,0.224004 0.235192,0.385624 0.04219,0.111174 0.04575,0.145848 0.05276,0.515142 0.0065,0.339578 0.01225,0.405215 0.04074,0.46106 0.04354,0.08535 0.165261,0.438969 0.242842,0.705512 0.107366,0.368872 0.200871,1.009497 0.223772,1.533113 0.03679,0.841075 -0.07731,1.768414 -0.305926,2.486484 -0.201586,0.633172 -0.546216,1.337681 -0.894065,1.827692 -0.05976,0.08418 -0.121966,0.178991 -0.138237,0.210686 -0.0269,0.05239 -0.02958,0.232347 -0.02958,1.981031 0,1.841835 -0.0014,1.926064 -0.03355,1.986146 -0.01845,0.03451 -0.06099,0.07895 -0.09454,0.09876 -0.06012,0.0355 -0.09332,0.03601 -2.329847,0.03601 -1.247872,0 -2.541498,-0.004 -2.874724,-0.009 z m 4.886657,-2.282364 0.0048,-1.850201 0.04762,-0.101559 c 0.02619,-0.05586 0.112374,-0.197661 0.191522,-0.315119 0.602786,-0.894552 0.968335,-1.833092 1.082593,-2.779532 0.08489,-0.703142 0.09178,-1.12998 0.0274,-1.69554 -0.03815,-0.33509 -0.06039,-0.371517 -0.06109,-0.100059 -4.8e-4,0.192858 -0.0056,0.225176 -0.05571,0.355208 -0.129893,0.336825 -0.441665,0.605989 -0.771115,0.665729 -0.143924,0.0261 -0.397743,0.02568 -0.52442,-8.8e-4 -0.146342,-0.03067 -0.334996,-0.136972 -0.47144,-0.265648 l -0.1207,-0.11383 -0.140501,0.142163 c -0.22867,0.231374 -0.470428,0.329326 -0.816401,0.330777 -0.336008,0.0014 -0.569033,-0.08765 -0.782764,-0.299152 -0.09447,-0.09349 -0.14832,-0.167012 -0.207761,-0.283676 -0.04413,-0.08661 -0.08429,-0.157199 -0.08924,-0.156859 -0.005,3.4e-4 -0.02926,0.04248 -0.05402,0.09365 -0.151371,0.312828 -0.376403,0.533877 -0.719015,0.706286 -0.251941,0.126783 -0.672175,0.202216 -1.031615,0.185179 -0.106759,-0.0051 -0.194106,-0.0066 -0.194106,-0.0035 0,0.0031 0.078,0.0439 0.173326,0.09058 0.344249,0.168576 0.772962,0.482072 1.042893,0.762617 0.36684,0.381263 0.603326,0.73181 0.793609,1.176377 0.08101,0.189271 0.08095,0.266883 -2.67e-4,0.348102 -0.05158,0.05158 -0.07405,0.06122 -0.142672,0.06122 -0.121404,0 -0.169224,-0.05131 -0.306205,-0.328557 -0.338968,-0.686039 -0.897999,-1.260735 -1.639741,-1.685663 -0.18412,-0.105479 -0.588953,-0.305061 -0.771724,-0.380459 -0.16506,-0.06809 -0.211622,-0.120658 -0.211622,-0.238912 0,-0.102304 0.05967,-0.194675 0.144678,-0.223953 0.04371,-0.01505 0.267309,-0.02198 0.74666,-0.02314 0.758631,-0.0018 0.857322,-0.01158 1.103973,-0.109175 0.340027,-0.134539 0.57893,-0.392458 0.650262,-0.70202 0.06155,-0.267118 -0.05607,-0.535013 -0.259729,-0.591551 -0.04995,-0.01387 -0.513905,-0.02001 -1.516376,-0.02008 -1.35659,-9e-5 -1.455382,0.002 -1.624895,0.03488 -0.227914,0.04418 -0.43278,0.146516 -0.578226,0.288835 -0.119917,0.117339 -0.236803,0.333325 -0.268625,0.496373 -0.01489,0.07632 -0.01885,0.392186 -0.01377,1.097532 0.0078,1.083484 0.0026,1.025344 0.124796,1.395528 0.100673,0.30503 0.264808,0.588025 0.511031,0.881102 0.206162,0.245392 0.399948,0.416384 0.736054,0.649478 0.397764,0.275853 0.558064,0.404895 0.644175,0.518561 0.158718,0.209509 0.148162,0.06765 0.154031,2.069919 l 0.0052,1.76917 h 2.592145 2.592145 z M 19.098235,19.02847 c 0.203872,-0.06297 0.386674,-0.243555 0.455322,-0.449803 0.03049,-0.0916 0.03342,-0.197024 0.03904,-1.404532 0.0066,-1.428554 0.002,-1.519728 -0.08738,-1.704736 -0.20004,-0.41423 -0.75768,-0.507395 -1.075681,-0.179715 -0.08556,0.08816 -0.174859,0.257432 -0.201605,0.382145 -0.01274,0.05938 -0.01739,0.551855 -0.01402,1.484348 l 0.005,1.39548 0.04748,0.09904 c 0.09448,0.197089 0.216054,0.312779 0.391522,0.372592 0.148841,0.05073 0.287517,0.05237 0.440284,0.0052 z m 1.812734,-0.05736 c 0.135935,-0.03973 0.294126,-0.167735 0.373722,-0.30241 0.09584,-0.162152 0.09604,-0.165603 0.09054,-1.516093 l -0.0051,-1.250717 -0.0766,-0.154561 c -0.109363,-0.220669 -0.270841,-0.348401 -0.491186,-0.388533 -0.349415,-0.06364 -0.683623,0.196113 -0.738202,0.573747 -0.02218,0.153452 -0.02214,2.252313 3.6e-5,2.445256 0.02841,0.247132 0.167387,0.453398 0.3737,0.554652 0.146335,0.07182 0.313021,0.08544 0.473077,0.03866 z m -3.186931,-3.361316 c -0.04264,-0.230648 -0.176708,-0.412917 -0.375833,-0.510946 -0.109021,-0.05367 -0.133083,-0.05851 -0.290317,-0.05833 -0.15854,1.77e-4 -0.180589,0.0048 -0.292962,0.06098 -0.221067,0.110589 -0.357055,0.314606 -0.391863,0.587897 -0.01892,0.148581 -0.02407,1.593209 -0.006,1.69632 l 0.01023,0.05852 h 0.363352 c 0.38694,0 0.489196,0.01487 0.668032,0.09713 0.101965,0.0469 0.257584,0.180136 0.297471,0.254676 0.02383,0.04454 0.02714,-0.06324 0.0313,-1.019484 0.0028,-0.657585 -0.0023,-1.106823 -0.01337,-1.166769 z m -1.801398,1.055649 c -2.6e-4,-0.45906 -0.0079,-0.811215 -0.01864,-0.857761 -0.05006,-0.217157 -0.21544,-0.414354 -0.41227,-0.491593 -0.151099,-0.05929 -0.371229,-0.05576 -0.510405,0.0082 -0.150533,0.06918 -0.202519,0.111154 -0.281255,0.227098 -0.12592,0.185425 -0.127496,0.19896 -0.127496,1.094813 v 0.798035 h 0.675256 0.675256 l -4.4e-4,-0.778795 z"
     id="path311" /></svg>
