<?xml version="1.0" encoding="UTF-8" standalone="no"?>
<!-- Uploaded to: SVG Repo, www.svgrepo.com, Generator: SVG Repo Mixer Tools -->

<svg
   fill="#000000"
   width="800px"
   height="800px"
   viewBox="0 0 36 36"
   version="1.1"
   preserveAspectRatio="xMidYMid meet"
   id="svg88"
   sodipodi:docname="heand.svg"
   inkscape:version="1.2.2 (732a01da63, 2022-12-09)"
   xmlns:inkscape="http://www.inkscape.org/namespaces/inkscape"
   xmlns:sodipodi="http://sodipodi.sourceforge.net/DTD/sodipodi-0.dtd"
   xmlns="http://www.w3.org/2000/svg"
   xmlns:svg="http://www.w3.org/2000/svg">
  <defs
     id="defs92" />
  <sodipodi:namedview
     id="namedview90"
     pagecolor="#ffffff"
     bordercolor="#000000"
     borderopacity="0.25"
     inkscape:showpageshadow="2"
     inkscape:pageopacity="0.0"
     inkscape:pagecheckerboard="0"
     inkscape:deskcolor="#d1d1d1"
     showgrid="false"
     inkscape:zoom="1.04625"
     inkscape:cx="399.5221"
     inkscape:cy="401.43369"
     inkscape:window-width="1920"
     inkscape:window-height="1017"
     inkscape:window-x="1592"
     inkscape:window-y="-8"
     inkscape:window-maximized="1"
     inkscape:current-layer="svg88" />
  <title
     id="title76">application-line</title>
  <rect
     x="5"
     y="7"
     width="2"
     height="2"
     class="clr-i-outline clr-i-outline-path-1"
     id="rect78" />
  <rect
     x="9"
     y="7"
     width="2"
     height="2"
     class="clr-i-outline clr-i-outline-path-2"
     id="rect80" />
  <rect
     x="13"
     y="7"
     width="2"
     height="2"
     class="clr-i-outline clr-i-outline-path-3"
     id="rect82" />
  <path
     d="M32,4H4A2,2,0,0,0,2,6V30a2,2,0,0,0,2,2H32a2,2,0,0,0,2-2V6A2,2,0,0,0,32,4ZM4,6H32v4.2H4ZM4,30V11.8H32V30Z"
     class="clr-i-outline clr-i-outline-path-4"
     id="path84" />
  <rect
     x="0"
     y="0"
     width="36"
     height="36"
     fill-opacity="0"
     id="rect86" />
  <path
     fill-rule="evenodd"
     clip-rule="evenodd"
     d="m 24.626181,15.497068 c -0.177724,0 -0.321847,0.144098 -0.321847,0.321847 v 5.471408 c 0,0.355513 -0.288183,0.643695 -0.643695,0.643695 -0.355513,0 -0.643695,-0.288182 -0.643695,-0.643695 v -4.184018 c 0,-0.177749 -0.144124,-0.321847 -0.321848,-0.321847 -0.177724,0 -0.321854,0.144098 -0.321854,0.321847 v 5.450617 c 0,0.713214 -0.884076,1.045425 -1.353748,0.508648 l -1.639743,-1.87399 c -0.1016,-0.116122 -0.254208,-0.174183 -0.407304,-0.155066 -0.362696,0.04532 -0.533437,0.472344 -0.301977,0.755248 l 3.01922,3.690174 c 0.82942,1.013756 2.070078,1.601642 3.379868,1.601642 2.065875,0 3.74064,-1.674765 3.74064,-3.74064 v -4.949243 c 0,-0.177749 -0.144123,-0.321847 -0.321847,-0.321847 -0.177724,0 -0.321847,0.144098 -0.321847,0.321847 v 2.896628 c 0,0.355513 -0.288183,0.643695 -0.643695,0.643695 -0.355513,0 -0.643695,-0.288182 -0.643695,-0.643695 v -4.184018 c 0,-0.177749 -0.144124,-0.321847 -0.321848,-0.321847 -0.177724,0 -0.321847,0.144098 -0.321847,0.321847 v 4.184018 c 0,0.355513 -0.288183,0.643695 -0.643695,0.643695 -0.355513,0 -0.643695,-0.288182 -0.643695,-0.643695 v -5.471408 c 0,-0.177749 -0.144124,-0.321847 -0.321848,-0.321847 z m 1.584198,0.03748 c -0.134275,-0.753123 -0.792453,-1.324872 -1.584198,-1.324872 -0.791745,0 -1.449923,0.571749 -1.584198,1.324872 -0.111745,-0.02454 -0.227803,-0.03748 -0.346887,-0.03748 -0.888762,0 -1.609244,0.720481 -1.609244,1.609237 v 4.080126 l -0.737237,-0.842597 c -0.383108,-0.437828 -0.958564,-0.656936 -1.535849,-0.584778 -1.36764,0.170959 -2.011464,1.781214 -1.138684,2.847945 l 3.019226,3.690175 c 1.073928,1.312559 2.680307,2.073792 4.37625,2.073792 2.776901,0 5.028031,-2.25113 5.028031,-5.02803 v -4.949243 c 0,-0.888756 -0.720488,-1.609237 -1.609238,-1.609237 -0.119084,0 -0.235142,0.01294 -0.346887,0.03748 -0.134275,-0.753123 -0.792453,-1.324872 -1.584198,-1.324872 -0.119083,0 -0.235142,0.01294 -0.346887,0.03748 z"
     fill="#0f0f0f"
     id="path774"
     style="fill:#000000;fill-opacity:1;stroke-width:0.643695" />
  <g
     id="g9657"
     transform="matrix(0.06107191,0,0,0.06107191,-3.0107527,4.8602151)">
	<rect
   x="128"
   y="128"
   fill-rule="evenodd"
   clip-rule="evenodd"
   width="64"
   height="64"
   id="rect9651" />

	<polygon
   fill-rule="evenodd"
   clip-rule="evenodd"
   points="288,160 288,128 272,128 272,144 256,144 256,128 240,128 240,160 224,160 224,128 208,128 208,192 384,192 384,128 368,128 368,160 352,160 352,128 336,128 336,144 320,144 320,128 304,128 304,160 "
   id="polygon9653" />

	<polygon
   fill-rule="evenodd"
   clip-rule="evenodd"
   points="144,304 128,304 128,320 160,320 160,336 128,336 128,352 144,352 144,368 128,368 128,384 192,384 192,208 128,208 128,224 144,224 144,240 128,240 128,256 160,256 160,272 128,272 128,288 144,288 "
   id="polygon9655" />

</g>
</svg>
