<?xml version="1.0" encoding="UTF-8" standalone="no"?>
<!-- Uploaded to: SVG Repo, www.svgrepo.com, Generator: SVG Repo Mixer Tools -->

<svg
   fill="#000000"
   width="800px"
   height="800px"
   viewBox="0 0 36 36"
   version="1.1"
   preserveAspectRatio="xMidYMid meet"
   id="svg88"
   sodipodi:docname="triangle.svg"
   inkscape:version="1.2.2 (732a01da63, 2022-12-09)"
   xmlns:inkscape="http://www.inkscape.org/namespaces/inkscape"
   xmlns:sodipodi="http://sodipodi.sourceforge.net/DTD/sodipodi-0.dtd"
   xmlns="http://www.w3.org/2000/svg"
   xmlns:svg="http://www.w3.org/2000/svg"
   xmlns:rdf="http://www.w3.org/1999/02/22-rdf-syntax-ns#"
   xmlns:cc="http://creativecommons.org/ns#"
   xmlns:dc="http://purl.org/dc/elements/1.1/">
  <defs
     id="defs92" />
  <sodipodi:namedview
     id="namedview90"
     pagecolor="#ffffff"
     bordercolor="#000000"
     borderopacity="0.25"
     inkscape:showpageshadow="2"
     inkscape:pageopacity="0.0"
     inkscape:pagecheckerboard="0"
     inkscape:deskcolor="#d1d1d1"
     showgrid="false"
     inkscape:zoom="0.523125"
     inkscape:cx="399.5221"
     inkscape:cy="554.36081"
     inkscape:window-width="1920"
     inkscape:window-height="1017"
     inkscape:window-x="1592"
     inkscape:window-y="-8"
     inkscape:window-maximized="1"
     inkscape:current-layer="svg88" />
  <title
     id="title76">application-line</title>
  <rect
     x="5"
     y="7"
     width="2"
     height="2"
     class="clr-i-outline clr-i-outline-path-1"
     id="rect78" />
  <rect
     x="9"
     y="7"
     width="2"
     height="2"
     class="clr-i-outline clr-i-outline-path-2"
     id="rect80" />
  <rect
     x="13"
     y="7"
     width="2"
     height="2"
     class="clr-i-outline clr-i-outline-path-3"
     id="rect82" />
  <path
     d="M32,4H4A2,2,0,0,0,2,6V30a2,2,0,0,0,2,2H32a2,2,0,0,0,2-2V6A2,2,0,0,0,32,4ZM4,6H32v4.2H4ZM4,30V11.8H32V30Z"
     class="clr-i-outline clr-i-outline-path-4"
     id="path84" />
  <rect
     x="0"
     y="0"
     width="36"
     height="36"
     fill-opacity="0"
     id="rect86" />
  <metadata
     id="metadata6025">
    <rdf:RDF>
      <cc:Work
         rdf:about="">
        <dc:title>application-line</dc:title>
      </cc:Work>
    </rdf:RDF>
  </metadata>
  <g
     id="Page-1"
     stroke="none"
     stroke-width="1"
     fill="none"
     fill-rule="evenodd"
     transform="matrix(-0.42365591,0,0,0.42365591,27.708494,20.27957)">
    <g
       id="Dribbble-Light-Preview"
       transform="translate(-140,-8159)"
       fill="#000000">
      <g
         id="icons"
         transform="translate(56,160)">
        <polygon
           id="mouse_pointer-[#6]"
           points="84,8016.125 89.711,8010.46 85.176,8005.925 104,7999 97.075,8017.824 92.54,8013.289 86.875,8019 " />
      </g>
    </g>
  </g>
  <path
     sodipodi:type="star"
     style="fill:#000000;stroke-width:0.045"
     id="path7836"
     inkscape:flatsided="false"
     sodipodi:sides="3"
     sodipodi:cx="19.784946"
     sodipodi:cy="14.795699"
     sodipodi:r1="8.6296329"
     sodipodi:r2="4.314817"
     sodipodi:arg1="0.52359878"
     sodipodi:arg2="1.5707963"
     inkscape:rounded="0"
     inkscape:randomized="0"
     d="m 27.258428,19.110516 -7.473481,0 -7.473482,0 3.73674,-6.472225 3.736741,-6.4722248 3.736741,6.4722248 z"
     inkscape:transform-center-y="-2.1574084"
     transform="translate(-6.8817205,6.8817204)" />
</svg>
